<?xml version="1.0" encoding="UTF-8"?>
<svg xmlns="http://www.w3.org/2000/svg" xmlns:xlink="http://www.w3.org/1999/xlink" width="150px" height="150px" viewBox="0 0 150 150" version="1.1">
<g id="surface1">
<path style=" stroke:none;fill-rule:nonzero;fill:rgb(0%,0%,0%);fill-opacity:1;" d="M 15.136719 106.371094 C 12.359375 106.371094 11.023438 99.796875 11.71875 92.183594 C 13.160156 76.414062 22.410156 53.042969 28.714844 53.042969 C 33.320312 53.042969 32.964844 65.707031 30.269531 76.515625 L 28.78125 81.589844 C 23.4375 97.742188 18.480469 106.371094 15.136719 106.371094 Z M 37.671875 0.0273438 C 29.625 0.0351562 20.761719 15.195312 15.199219 29.550781 L 15.636719 31.511719 C 24.273438 12.871094 36.261719 0.742188 39.566406 18.929688 C 41.308594 28.527344 38.347656 47.898438 34.175781 63.214844 C 35.175781 56.449219 34.515625 43.464844 28.703125 43.464844 C 19.03125 43.460938 0 82.902344 0 123.253906 C 0 139.421875 3.640625 149.972656 9.640625 149.972656 C 25.699219 149.972656 47.484375 68.917969 47.484375 28.207031 C 47.480469 13.832031 44.792969 0.0273438 37.671875 0.0273438 Z M 58.347656 106.371094 C 57.414062 106.371094 56.636719 105.359375 56.152344 103.535156 C 55.644531 101.609375 55.492188 98.890625 55.734375 96.074219 C 56.265625 89.960938 58.402344 85.179688 60.601562 85.179688 L 65.765625 85.179688 L 63.921875 106.375 Z M 73.207031 42.820312 C 71.726562 37.222656 69.335938 34.722656 67.621094 34.722656 L 58.226562 34.722656 L 56.632812 53.03125 L 65.492188 53.03125 L 66.339844 53.304688 C 66.347656 53.304688 67.15625 53.59375 67.601562 55.457031 C 67.964844 57.007812 68.015625 59.320312 67.757812 62.34375 L 67.335938 67.160156 L 61.757812 67.160156 C 56.953125 67.160156 50.257812 77.765625 48.765625 94.90625 C 48.023438 103.453125 48.671875 110.855469 50.113281 116.296875 C 51.546875 121.695312 54.246094 124.667969 57.164062 124.667969 L 62.332031 124.667969 L 62.328125 124.671875 L 68.898438 124.671875 L 71.980469 89.246094 L 74.25 63.203125 C 75.140625 52.972656 74.175781 46.46875 73.207031 42.820312 Z M 137.726562 34.722656 C 135.183594 34.722656 132.824219 37.035156 130.902344 41.421875 C 128.964844 45.84375 127.894531 51.160156 127.257812 58.484375 C 125.875 74.359375 129.925781 82.019531 133.1875 87.449219 C 135.519531 91.351562 137.539062 94.710938 137.101562 99.6875 C 136.792969 103.265625 136.285156 106.386719 133.414062 106.386719 L 124.644531 106.386719 L 123.050781 124.699219 L 132.757812 124.699219 C 135.359375 124.699219 137.761719 123.027344 139.699219 118.453125 C 141.636719 113.863281 142.730469 107.464844 143.410156 99.660156 C 144.058594 92.226562 143.617188 85.132812 142.066406 79.832031 C 140.773438 75.390625 138.910156 72.300781 137.269531 69.570312 C 135.167969 66.085938 133.1875 62.800781 133.535156 58.8125 C 133.742188 56.410156 134.523438 53.042969 136.21875 53.042969 L 144.75 53.042969 L 146.34375 34.734375 L 137.722656 34.734375 L 137.722656 34.722656 Z M 86.824219 34.722656 C 84.285156 34.722656 81.921875 37.035156 80.003906 41.421875 C 78.0625 45.84375 76.996094 51.160156 76.351562 58.484375 C 74.972656 74.359375 79.027344 82.019531 82.28125 87.449219 C 84.617188 91.351562 86.636719 94.710938 86.203125 99.6875 C 85.890625 103.265625 85.382812 106.386719 82.511719 106.386719 L 73.742188 106.386719 L 72.148438 124.699219 L 81.855469 124.699219 C 84.460938 124.699219 86.863281 123.027344 88.796875 118.453125 C 90.738281 113.863281 91.832031 107.464844 92.507812 99.660156 C 93.15625 92.226562 92.714844 85.132812 91.167969 79.832031 C 89.875 75.390625 88.011719 72.300781 86.367188 69.570312 C 84.269531 66.085938 82.285156 62.800781 82.632812 58.8125 C 82.84375 56.410156 83.625 53.042969 85.316406 53.042969 L 93.84375 53.042969 L 95.4375 34.734375 L 86.824219 34.734375 Z M 100.070312 34.722656 L 92.457031 124.683594 L 98.890625 124.683594 L 106.496094 34.722656 Z M 123.613281 34.722656 C 112.289062 34.847656 106.363281 58.070312 104.480469 79.699219 C 102.25 105.351562 106.683594 124.6875 114.796875 124.6875 L 120.230469 124.6875 L 121.824219 106.375 L 116.390625 106.375 C 113.355469 106.375 109.179688 99.015625 110.863281 79.699219 C 112.199219 64.34375 117.058594 53.03125 122.398438 53.03125 L 125.847656 53.03125 L 127.441406 34.722656 Z M 145.894531 120.570312 L 146.457031 120.570312 L 146.457031 116.679688 L 146.902344 116.679688 C 147.203125 116.679688 147.414062 116.777344 147.53125 116.992188 C 147.734375 117.359375 147.835938 118.121094 147.835938 119.261719 L 147.835938 120.050781 L 147.84375 120.363281 C 147.851562 120.410156 147.851562 120.445312 147.855469 120.480469 L 147.863281 120.570312 L 148.390625 120.570312 L 148.371094 120.449219 C 148.355469 120.285156 148.34375 120.109375 148.34375 119.9375 C 148.339844 119.691406 148.335938 119.445312 148.335938 119.199219 L 148.335938 118.476562 C 148.332031 117.921875 148.269531 117.390625 148.164062 116.945312 C 148.046875 116.421875 147.859375 116.097656 147.609375 115.972656 C 147.804688 115.878906 147.960938 115.730469 148.074219 115.492188 C 148.285156 115.074219 148.386719 114.433594 148.386719 113.542969 C 148.386719 112.304688 148.222656 111.46875 147.890625 111.042969 C 147.707031 110.808594 147.414062 110.695312 147.015625 110.695312 L 145.894531 110.695312 L 145.894531 120.570312 M 147.503906 115.25 C 147.386719 115.390625 147.207031 115.46875 146.96875 115.46875 L 146.457031 115.46875 L 146.457031 111.890625 L 146.9375 111.890625 C 147.25 111.890625 147.480469 112.007812 147.621094 112.253906 C 147.765625 112.5 147.835938 112.980469 147.835938 113.703125 C 147.835938 114.460938 147.726562 114.976562 147.503906 115.25 Z M 149.144531 109.3125 C 148.597656 107.601562 147.847656 106.65625 147.066406 106.695312 C 146.265625 106.695312 145.578125 107.570312 145.007812 109.3125 C 144.453125 110.972656 144.144531 113.269531 144.15625 115.65625 C 144.15625 118.160156 144.4375 120.292969 145.003906 122.042969 C 145.570312 123.804688 146.261719 124.6875 147.070312 124.6875 C 147.878906 124.6875 148.570312 123.804688 149.140625 122.042969 C 149.714844 120.28125 150 118.152344 150 115.65625 C 150 113.175781 149.714844 111.058594 149.144531 109.3125 Z M 148.851562 110.1875 C 149.34375 111.695312 149.585938 113.523438 149.585938 115.652344 C 149.585938 117.8125 149.34375 119.648438 148.851562 121.167969 C 148.363281 122.6875 147.769531 123.453125 147.074219 123.453125 C 146.375 123.453125 145.78125 122.691406 145.292969 121.167969 C 144.8125 119.710938 144.550781 117.722656 144.5625 115.652344 C 144.5625 113.515625 144.808594 111.695312 145.292969 110.1875 C 145.757812 108.703125 146.402344 107.878906 147.070312 107.90625 C 147.742188 107.875 148.386719 108.699219 148.851562 110.1875 Z M 148.851562 110.1875 "/>
</g>
</svg>
