<?xml version="1.0" encoding="UTF-8"?>
<svg xmlns="http://www.w3.org/2000/svg" xmlns:xlink="http://www.w3.org/1999/xlink" width="150px" height="150px" viewBox="0 0 150 150" version="1.1">
<g id="surface1">
<path style=" stroke:none;fill-rule:nonzero;fill:rgb(0%,0%,0%);fill-opacity:1;" d="M 84.6875 13.710938 L 84.6875 13.242188 C 84.6875 11.054688 85.394531 9.101562 86.800781 7.382812 C 88.207031 5.664062 90 4.804688 92.1875 4.804688 C 94.375 4.804688 96.332031 5.507812 98.050781 6.914062 C 99.769531 8.320312 100.707031 10.195312 100.863281 12.539062 C 101.019531 14.882812 100.3125 16.835938 98.75 18.398438 C 97.1875 19.960938 95.3125 20.742188 93.125 20.742188 L 91.71875 21.210938 L 92.1875 21.914062 L 91.71875 24.492188 L 90.78125 31.992188 C 91.09375 32.304688 91.25 32.617188 91.25 32.929688 L 90.3125 37.617188 C 90 38.242188 89.6875 38.710938 89.375 39.023438 L 88.90625 40.898438 C 88.089844 44.214844 87.148438 47.496094 86.09375 50.742188 L 86.09375 51.679688 C 85.78125 53.242188 85.550781 54.492188 85.394531 55.429688 C 85.238281 56.367188 84.6875 57.929688 83.75 60.117188 C 83.125 61.367188 83.125 63.398438 83.75 66.210938 L 84.21875 66.679688 C 84.21875 67.617188 84.613281 68.710938 85.394531 69.960938 C 86.175781 71.210938 86.5625 72.304688 86.5625 73.242188 C 86.875 79.492188 86.40625 84.804688 85.15625 89.179688 L 86.09375 91.992188 C 89.84375 93.867188 90.9375 95.898438 89.375 98.085938 L 91.71875 99.023438 C 95.46875 100.898438 98.125 102.539062 99.6875 103.945312 C 101.25 105.351562 102.8125 106.835938 104.375 108.398438 C 105.625 108.710938 106.5625 109.179688 107.1875 109.804688 L 108.59375 110.273438 C 115.15625 114.648438 121.71875 119.960938 128.28125 126.210938 L 130.15625 127.617188 L 130.15625 128.085938 L 129.6875 129.023438 L 131.09375 129.960938 L 131.5625 129.960938 C 132.5 130.585938 133.125 130.898438 133.4375 130.898438 L 133.90625 130.898438 C 134.21875 130.898438 134.53125 130.742188 134.84375 130.429688 L 135.78125 129.960938 C 136.40625 129.335938 137.03125 128.867188 137.65625 128.554688 L 139.53125 128.554688 C 139.84375 128.554688 139.84375 128.710938 139.53125 129.023438 L 137.65625 129.960938 L 135.3125 132.773438 L 138.59375 132.773438 L 141.875 133.242188 C 142.8125 132.929688 143.59375 132.617188 144.21875 132.304688 L 146.5625 130.898438 C 147.5 130.585938 148.4375 130.898438 149.375 131.835938 L 149.84375 131.835938 C 150.15625 132.148438 150 132.617188 149.375 133.242188 L 143.75 138.398438 C 142.1875 139.648438 140.78125 140.429688 139.53125 140.742188 L 133.4375 144.960938 C 133.125 145.273438 132.8125 145.273438 132.5 144.960938 L 131.09375 143.085938 L 130.15625 141.210938 L 128.980469 139.570312 L 127.574219 137.695312 L 126.40625 136.289062 L 125.46875 135.117188 L 123.59375 133.710938 C 122.96875 133.710938 122.34375 133.554688 121.71875 133.242188 L 115.625 128.554688 C 114.6875 128.554688 113.59375 128.085938 112.34375 127.148438 C 107.65625 123.085938 104.53125 120.585938 102.96875 119.648438 L 100.15625 117.773438 L 94.53125 116.835938 C 92.65625 116.523438 90.15625 115.585938 87.03125 114.023438 L 83.28125 112.148438 C 80.78125 110.898438 79.0625 110.273438 78.125 110.273438 L 76.25 109.335938 C 75 109.023438 74.0625 108.710938 73.4375 108.398438 L 72.5 107.460938 C 71.875 107.460938 71.25 107.617188 70.625 107.929688 L 61.25 112.617188 L 49.53125 117.773438 C 46.40625 120.273438 43.4375 122.304688 40.625 123.867188 L 35.46875 126.210938 L 27.5 131.835938 C 26.875 132.460938 26.25 132.460938 25.625 131.835938 L 24.6875 132.773438 C 23.75 133.085938 23.125 133.242188 22.8125 133.242188 L 20.9375 134.179688 L 20.9375 135.117188 L 20 135.117188 L 19.0625 136.523438 C 18.4375 137.773438 17.8125 138.476562 17.1875 138.632812 C 16.5625 138.789062 16.175781 139.023438 16.019531 139.335938 C 15.898438 139.59375 15.742188 139.828125 15.550781 140.039062 L 14.613281 140.976562 L 13.207031 141.914062 L 11.09375 141.679688 L 8.28125 142.148438 L 6.40625 142.617188 C 4.84375 142.929688 3.59375 142.695312 2.65625 141.914062 C 1.71875 141.132812 0.9375 139.960938 0.3125 138.398438 C -0.3125 137.460938 0 136.679688 1.25 136.054688 L 1.71875 135.585938 C 2.03125 135.273438 2.5 135.117188 3.125 135.117188 L 5.9375 135.117188 L 9.6875 133.710938 L 11.5625 133.242188 C 11.5625 132.617188 11.71875 132.148438 12.03125 131.835938 C 12.34375 131.523438 12.8125 131.367188 13.4375 131.367188 L 13.4375 130.898438 C 13.136719 130.320312 12.976562 129.679688 12.96875 129.023438 C 12.65625 128.398438 12.574219 127.929688 12.738281 127.617188 C 12.894531 127.304688 13.050781 127.148438 13.207031 127.148438 L 13.4375 127.148438 L 13.90625 128.554688 C 14.21875 130.117188 14.6875 130.585938 15.3125 129.960938 L 15.78125 129.023438 C 16.09375 128.398438 16.5625 128.085938 17.1875 128.085938 L 18.125 129.023438 L 19.0625 128.085938 L 18.59375 127.617188 C 18.59375 127.304688 18.75 127.148438 19.0625 127.148438 L 20.9375 125.273438 C 22.5 123.398438 24.375 121.679688 26.5625 120.117188 C 30.9375 116.679688 35.625 114.023438 40.625 112.148438 C 42.1875 110.585938 43.90625 109.804688 45.78125 109.804688 C 47.03125 107.617188 48.90625 105.273438 51.40625 102.773438 C 53.59375 101.210938 55.15625 100.117188 56.09375 99.492188 C 56.71875 98.242188 57.5 97.617188 58.4375 97.617188 L 58.90625 97.617188 L 59.84375 96.679688 C 60.46875 96.367188 60.9375 96.054688 61.25 95.742188 L 61.25 93.398438 C 61.25 91.835938 61.40625 90.585938 61.71875 89.648438 C 62.03125 88.710938 62.8125 88.242188 64.0625 88.242188 L 65.9375 86.367188 C 65.3125 85.117188 65 83.710938 65 82.148438 L 64.53125 82.148438 C 63.90625 81.210938 63.59375 80.273438 63.59375 79.335938 C 62.65625 77.773438 62.03125 76.523438 61.71875 75.585938 L 60.3125 75.585938 C 60 76.523438 59.21875 77.148438 57.96875 77.460938 L 57.5 78.398438 C 56.25 80.585938 55.15625 82.226562 54.21875 83.320312 C 53.28125 84.414062 51.5625 85.742188 49.0625 87.304688 C 47.5 88.867188 46.40625 90.585938 45.78125 92.460938 C 45.46875 93.398438 45.46875 94.335938 45.78125 95.273438 L 45.3125 96.210938 L 45.78125 96.210938 C 45.78125 96.835938 45.9375 97.148438 46.25 97.148438 L 46.71875 97.148438 C 47.34375 97.460938 47.65625 97.851562 47.65625 98.320312 C 47.65625 98.789062 47.1875 98.945312 46.25 98.789062 C 45.46875 98.703125 44.730469 98.375 44.144531 97.851562 C 43.675781 97.382812 43.28125 97.148438 42.96875 97.148438 L 41.5625 98.554688 C 40.9375 99.492188 40.3125 99.882812 39.6875 99.726562 C 39.0625 99.570312 38.90625 99.335938 39.21875 99.023438 L 39.6875 98.554688 C 40 97.929688 40 97.617188 39.6875 97.617188 L 35.9375 98.554688 C 35.625 98.867188 35.238281 98.867188 34.769531 98.554688 C 34.300781 98.242188 34.375 97.929688 35 97.617188 L 37.34375 96.679688 C 37.34375 96.367188 37.1875 96.210938 36.875 96.210938 C 35.625 96.835938 34.375 96.992188 33.125 96.679688 L 30.78125 96.210938 L 30.3125 95.742188 C 30.3125 95.429688 30.46875 95.273438 30.78125 95.273438 C 32.03125 95.585938 33.59375 95.429688 35.46875 94.804688 L 38.75 93.398438 L 42.5 89.179688 L 42.96875 88.242188 C 44.21875 85.742188 45.550781 83.476562 46.957031 81.445312 C 48.195312 79.597656 49.691406 77.941406 51.40625 76.523438 L 51.875 74.648438 C 52.5 73.398438 53.125 72.304688 53.75 71.367188 C 54.375 70.429688 55.15625 69.179688 56.09375 67.617188 L 57.5 65.742188 C 58.75 63.867188 60.15625 62.929688 61.71875 62.929688 L 63.125 61.523438 C 63.4375 61.210938 63.59375 60.742188 63.59375 60.117188 L 64.53125 59.179688 L 64.0625 58.710938 C 62.1875 57.148438 61.25 55.742188 61.25 54.492188 C 60.9375 52.304688 61.644531 50.429688 63.363281 48.867188 C 65.082031 47.304688 66.800781 46.601562 68.519531 46.757812 C 70.238281 46.914062 71.5625 47.460938 72.5 48.398438 L 73.4375 49.335938 C 73.75 49.335938 73.90625 49.492188 73.90625 49.804688 L 75.78125 50.742188 L 75.78125 52.148438 C 76.40625 52.773438 76.71875 53.242188 76.71875 53.554688 C 77.34375 52.617188 78.28125 51.523438 79.53125 50.273438 L 81.875 42.773438 C 81.875 41.523438 82.1875 40.273438 82.8125 39.023438 L 83.75 37.617188 L 83.75 36.679688 L 85.15625 31.054688 L 86.09375 31.054688 L 87.5 25.429688 C 87.8125 24.359375 87.8125 23.222656 87.5 22.148438 L 85.625 17.460938 Z M 84.6875 13.710938 "/>
</g>
</svg>
