<?xml version="1.0" encoding="UTF-8"?>
<svg xmlns="http://www.w3.org/2000/svg" xmlns:xlink="http://www.w3.org/1999/xlink" width="150px" height="150px" viewBox="0 0 150 150" version="1.1">
<g id="surface1">
<rect x="0" y="0" width="150" height="150" style="fill:rgb(100%,100%,100%);fill-opacity:1;stroke:none;"/>
<path style=" stroke:none;fill-rule:evenodd;fill:rgb(0%,0%,0%);fill-opacity:1;" d="M 61.648438 64.933594 L 68.96875 64.285156 L 76.183594 63.636719 L 69.398438 73.113281 L 68.96875 72.683594 Z M 68.96875 55.996094 C 48.511719 57.394531 40.003906 52.441406 60.355469 40.863281 L 4.84375 54.433594 C 4.84375 54.433594 22.664062 57.609375 33.433594 60.625 C 44.203125 63.640625 59.492188 71.175781 64.015625 85.984375 L 78.335938 85.984375 C 78.335938 60.195312 112.152344 54 122.488281 51.203125 L 143.703125 46.25 L 147.792969 39.464844 C 147.792969 39.464844 114.519531 48.1875 93.628906 52.386719 C 84.421875 54.324219 75.96875 55.5625 68.96875 55.996094 Z M 43.285156 85.121094 C 40.054688 85.121094 37.847656 86.84375 36.125 89 L 34.027344 91.53125 L 34.027344 85.121094 L 26.757812 85.121094 C 23.527344 85.121094 21.265625 86.84375 19.542969 89 L 2.207031 110.425781 L 12.542969 110.425781 L 26.113281 93.953125 C 28.210938 91.152344 29.289062 91.582031 30.582031 91.582031 L 34.027344 91.582031 L 18.789062 110.425781 L 29.074219 110.425781 L 42.640625 93.953125 C 44.796875 91.152344 45.871094 91.582031 47.164062 91.582031 L 50.609375 91.582031 L 35.101562 110.425781 L 46.410156 110.425781 C 49.046875 110.425781 50.609375 108.488281 50.609375 106.28125 L 50.609375 85.121094 Z M 140.417969 107.898438 C 140.632812 107.898438 140.792969 107.84375 140.792969 107.574219 C 140.792969 107.359375 140.578125 107.304688 140.363281 107.304688 L 139.933594 107.304688 L 139.933594 107.898438 Z M 140.363281 106.875 C 141.007812 106.875 141.386719 107.035156 141.386719 107.628906 C 141.386719 108.113281 141.117188 108.273438 140.742188 108.328125 L 141.441406 109.40625 L 140.792969 109.40625 L 140.363281 108.652344 L 140.203125 108.328125 L 139.933594 108.328125 L 139.933594 109.40625 L 139.394531 109.40625 L 139.394531 106.875 Z M 140.363281 110.535156 L 140.3125 110.535156 C 139.070312 110.535156 137.941406 109.675781 137.941406 108.167969 C 137.941406 106.65625 139.070312 105.742188 140.3125 105.742188 L 140.363281 105.742188 C 141.601562 105.796875 142.734375 106.660156 142.734375 108.167969 C 142.734375 109.621094 141.601562 110.535156 140.363281 110.535156 Z M 140.363281 106.335938 C 141.277344 106.335938 142.03125 107.089844 142.03125 108.167969 C 142.03125 109.242188 141.277344 109.941406 140.363281 110 L 140.3125 110 C 139.394531 110 138.585938 109.242188 138.585938 108.167969 C 138.585938 107.035156 139.394531 106.335938 140.3125 106.335938 Z M 125.824219 106.445312 L 127.386719 106.445312 C 128.25 106.445312 128.789062 105.796875 128.789062 104.613281 L 128.789062 97.398438 C 128.789062 96.160156 128.25 95.566406 127.386719 95.566406 L 124.320312 95.566406 C 123.457031 95.566406 122.917969 96.160156 122.917969 97.398438 L 122.917969 104.613281 C 122.917969 105.796875 123.457031 106.445312 124.320312 106.445312 Z M 125.824219 91.582031 L 132.019531 91.582031 C 133.957031 91.582031 135.679688 92.984375 135.679688 94.921875 L 135.679688 107.089844 C 135.679688 109.027344 133.957031 110.429688 132.019531 110.429688 L 119.6875 110.429688 C 117.695312 110.429688 116.027344 109.027344 116.027344 107.089844 L 116.027344 94.921875 C 116.027344 92.984375 117.695312 91.582031 119.6875 91.582031 Z M 71.070312 106.496094 L 79.578125 106.496094 L 79.578125 110.429688 L 63.261719 110.429688 L 63.261719 106.496094 C 63.261719 105.3125 63.746094 104.667969 64.339844 104.074219 L 71.554688 95.515625 L 62.941406 95.515625 L 62.941406 91.582031 L 79.253906 91.582031 L 79.253906 95.515625 C 79.253906 96.699219 78.769531 97.34375 78.175781 97.9375 Z M 109.675781 91.582031 L 93.953125 91.582031 L 93.953125 104.613281 C 93.953125 105.691406 93.253906 106.445312 92.5 106.445312 L 89.753906 106.445312 C 88.890625 106.445312 88.355469 105.796875 88.355469 104.613281 L 88.355469 91.582031 L 81.460938 91.582031 L 81.460938 107.089844 C 81.460938 109.027344 83.183594 110.429688 85.121094 110.429688 L 97.183594 110.429688 C 99.121094 110.429688 100.84375 109.027344 100.84375 107.089844 L 100.84375 97.398438 C 100.84375 96.265625 101.597656 95.566406 102.296875 95.566406 L 105.046875 95.566406 C 105.90625 95.566406 106.445312 96.160156 106.445312 97.398438 L 106.445312 110.425781 L 113.335938 110.425781 L 113.335938 94.921875 C 113.335938 92.980469 111.613281 91.582031 109.675781 91.582031 Z M 57.015625 110.425781 L 53.785156 110.425781 L 53.785156 91.582031 L 60.679688 91.582031 L 60.679688 107.089844 C 60.679688 109.027344 58.957031 110.425781 57.015625 110.425781 Z M 57.015625 110.425781 "/>
</g>
</svg>
