<?xml version="1.0" encoding="UTF-8"?>
<svg xmlns="http://www.w3.org/2000/svg" xmlns:xlink="http://www.w3.org/1999/xlink" width="150px" height="150px" viewBox="0 0 150 150" version="1.1">
<g id="surface1">
<rect x="0" y="0" width="150" height="150" style="fill:rgb(100%,100%,100%);fill-opacity:1;stroke:none;"/>
<path style=" stroke:none;fill-rule:evenodd;fill:rgb(0%,0%,0%);fill-opacity:1;" d="M 62.507812 72.164062 L 45.765625 72.761719 L 61.660156 73.644531 Z M 60.503906 75.683594 L 43.726562 76.28125 L 59.679688 77.164062 Z M 58.5 79.230469 L 41.746094 79.816406 L 57.675781 80.703125 Z M 56.539062 82.757812 L 39.761719 83.355469 L 55.675781 84.238281 Z M 77.050781 54.410156 L 55.6875 55.171875 L 77.113281 56.363281 Z M 76.914062 50.917969 L 57.722656 51.59375 L 76.976562 52.695312 Z M 76.777344 47.550781 L 59.679688 48.113281 L 76.863281 49.070312 Z M 76.664062 44.097656 L 61.675781 44.597656 L 76.722656 45.484375 Z M 76.566406 41.300781 L 63.53125 41.300781 L 76.585938 41.992188 Z M 54.519531 86.285156 L 37.78125 86.890625 L 54.175781 86.890625 Z M 54.519531 86.285156 "/>
<path style=" stroke:none;fill-rule:evenodd;fill:rgb(0%,0%,0%);fill-opacity:1;" d="M 111.242188 41.414062 L 87.121094 41.414062 L 86.4375 42.625 L 98.507812 43.265625 C 98.652344 43.265625 98.652344 43.464844 98.449219 43.464844 L 85.734375 43.890625 L 84.507812 46.039062 L 96.496094 46.746094 C 96.65625 46.765625 96.617188 46.988281 96.476562 46.988281 L 83.742188 47.40625 L 82.558594 49.460938 L 94.527344 50.125 C 94.789062 50.144531 94.789062 50.367188 94.527344 50.367188 L 81.8125 50.8125 L 80.605469 52.960938 L 92.535156 53.648438 C 92.796875 53.667969 92.777344 53.90625 92.535156 53.90625 L 79.820312 54.359375 L 78.59375 56.484375 L 90.542969 57.148438 C 90.722656 57.167969 90.746094 57.390625 90.503906 57.390625 L 53.867188 58.617188 L 88.632812 60.546875 C 88.851562 60.546875 88.832031 60.828125 88.589844 60.828125 L 51.894531 62.136719 L 86.660156 64.070312 C 86.820312 64.070312 86.859375 64.332031 86.617188 64.332031 L 49.863281 65.65625 L 84.628906 67.589844 C 84.769531 67.609375 84.910156 67.871094 84.609375 67.890625 L 47.914062 69.195312 L 82.675781 71.128906 C 82.777344 71.148438 82.875 71.410156 82.636719 71.410156 L 64.167969 72.066406 L 64.226562 73.734375 L 80.683594 74.648438 C 80.804688 74.667969 80.863281 74.910156 80.644531 74.910156 L 64.289062 75.492188 L 64.371094 77.355469 L 78.652344 78.148438 C 78.792969 78.171875 78.855469 78.453125 78.613281 78.453125 L 64.449219 78.949219 L 64.511719 80.996094 L 76.683594 81.671875 C 76.824219 81.691406 76.863281 81.953125 76.621094 81.953125 L 64.570312 82.382812 L 64.652344 84.632812 L 74.710938 85.191406 C 74.851562 85.210938 74.851562 85.453125 74.652344 85.453125 L 64.691406 85.8125 L 64.734375 86.78125 L 97.203125 86.78125 C 105.8125 86.78125 113.539062 80.503906 114.984375 75.515625 C 116.4375 70.527344 116.4375 66.019531 109.515625 63.765625 C 113.378906 62.882812 120.097656 58.523438 121.425781 52.5 C 122.628906 47.027344 120.617188 41.433594 111.242188 41.414062 Z M 94.910156 76.355469 L 84.933594 76.355469 L 90.566406 66.375 L 97.96875 66.375 C 105.613281 66.375 101.910156 76.355469 94.910156 76.355469 Z M 107.828125 54.949219 C 107.503906 56.15625 105.089844 59.214844 102.03125 59.214844 L 94.628906 59.214844 L 99.375 50.84375 L 103.160156 50.84375 C 107.984375 51.003906 108.148438 53.742188 107.828125 54.949219 Z M 147.792969 101.242188 C 147.792969 97.375 144.578125 94.136719 140.714844 94.136719 C 136.746094 94.136719 133.507812 97.425781 133.507812 101.46875 C 133.5 103.386719 134.257812 105.230469 135.617188 106.589844 C 136.972656 107.949219 138.820312 108.707031 140.738281 108.699219 C 143.675781 108.699219 146.460938 106.691406 147.292969 103.953125 L 143.625 103.953125 C 142.898438 105.109375 141.945312 105.636719 140.636719 105.636719 C 138.980469 105.636719 137.5 104.503906 137.023438 102.898438 L 147.617188 102.898438 C 147.742188 102.121094 147.792969 101.742188 147.792969 101.242188 Z M 136.921875 100.273438 C 137.398438 98.390625 138.90625 97.183594 140.765625 97.183594 C 142.621094 97.183594 144.078125 98.363281 144.53125 100.273438 Z M 100.195312 94.804688 L 100.195312 95.933594 C 99.140625 94.804688 97.617188 94.160156 95.984375 94.160156 C 92.367188 94.160156 89.285156 97.25 89.285156 101.265625 C 89.285156 105.058594 92.011719 108.457031 96.054688 108.457031 C 97.835938 108.457031 99.191406 108.042969 100.472656 106.589844 L 100.472656 108.371094 L 103.539062 108.371094 L 103.539062 94.804688 Z M 96.453125 105.582031 C 94.128906 105.582031 92.242188 103.695312 92.242188 101.371094 C 92.242188 99.046875 94.128906 97.160156 96.453125 97.160156 C 98.777344 97.160156 100.664062 99.046875 100.664062 101.371094 C 100.664062 103.695312 98.777344 105.582031 96.453125 105.582031 Z M 8.882812 94.136719 C 7.503906 94.136719 6.449219 94.613281 5.292969 95.792969 L 5.292969 94.460938 L 2.207031 94.460938 L 2.207031 108.371094 L 5.546875 108.371094 L 5.546875 101.816406 C 5.546875 100.035156 5.695312 97.199219 8.15625 97.199219 C 10.464844 97.199219 10.71875 99.859375 10.71875 101.566406 L 10.71875 108.371094 L 14.054688 108.371094 L 14.054688 100.914062 C 14.054688 98.953125 13.90625 98.027344 13.378906 96.921875 C 12.601562 95.265625 10.769531 94.136719 8.882812 94.136719 Z M 29.632812 101.242188 C 29.632812 97.375 26.421875 94.136719 22.554688 94.136719 C 18.585938 94.136719 15.347656 97.425781 15.347656 101.46875 C 15.339844 103.386719 16.097656 105.230469 17.457031 106.589844 C 18.8125 107.945312 20.65625 108.707031 22.578125 108.699219 C 25.515625 108.699219 28.300781 106.691406 29.132812 103.953125 L 25.464844 103.953125 C 24.738281 105.109375 23.785156 105.636719 22.476562 105.636719 C 20.820312 105.636719 19.339844 104.503906 18.863281 102.898438 L 29.457031 102.898438 C 29.585938 102.121094 29.632812 101.742188 29.632812 101.242188 Z M 18.761719 100.273438 C 19.238281 98.390625 20.746094 97.183594 22.605469 97.183594 C 24.464844 97.183594 25.917969 98.363281 26.371094 100.273438 Z M 84.578125 108.359375 L 87.917969 108.359375 L 87.917969 89.804688 L 84.578125 89.804688 Z M 112.347656 94.136719 C 110.964844 94.136719 109.910156 94.613281 108.757812 95.792969 L 108.757812 94.460938 L 105.667969 94.460938 L 105.667969 108.371094 L 109.007812 108.371094 L 109.007812 101.816406 C 109.007812 100.035156 109.160156 97.199219 111.617188 97.199219 C 113.929688 97.199219 114.179688 99.859375 114.179688 101.566406 L 114.179688 108.371094 L 117.519531 108.371094 L 117.519531 100.914062 C 117.519531 98.953125 117.367188 98.027344 116.839844 96.921875 C 116.0625 95.265625 114.230469 94.136719 112.347656 94.136719 Z M 125.855469 97.199219 C 127.386719 97.199219 128.265625 97.703125 129.09375 99.105469 L 132.859375 99.105469 C 131.832031 96.121094 129.195312 94.136719 125.980469 94.136719 C 121.914062 94.136719 118.648438 97.375 118.648438 101.367188 C 118.648438 105.382812 121.9375 108.699219 125.980469 108.699219 C 128.0625 108.6875 130.050781 107.804688 131.453125 106.261719 C 132.15625 105.484375 132.40625 105.03125 132.859375 103.800781 L 129.09375 103.800781 C 128.3125 105.007812 127.3125 105.632812 126.054688 105.632812 C 123.71875 105.632812 121.988281 103.828125 121.988281 101.414062 C 121.988281 98.980469 123.644531 97.199219 125.855469 97.199219 Z M 42.398438 102.949219 L 40.03125 94.460938 L 37.347656 94.460938 L 34.957031 102.949219 L 32.128906 94.460938 L 29.183594 94.460938 L 33.828125 108.371094 L 35.964844 108.371094 L 38.675781 99.359375 L 41.3125 108.371094 L 43.558594 108.371094 L 48.011719 94.460938 L 45.25 94.460938 Z M 60.289062 94.148438 C 58.65625 94.148438 57.128906 94.792969 56.074219 95.921875 L 56.074219 89.804688 L 52.734375 89.804688 L 52.734375 108.359375 L 55.800781 108.359375 L 55.800781 106.578125 C 57.078125 108.035156 58.433594 108.445312 60.21875 108.445312 C 64.261719 108.445312 66.988281 105.046875 66.988281 101.253906 C 66.988281 97.238281 63.90625 94.148438 60.289062 94.148438 Z M 59.820312 105.582031 C 57.492188 105.582031 55.609375 103.695312 55.609375 101.371094 C 55.609375 99.046875 57.492188 97.160156 59.820312 97.160156 C 62.144531 97.160156 64.027344 99.046875 64.027344 101.371094 C 64.027344 103.695312 62.144531 105.582031 59.820312 105.582031 Z M 79.007812 94.804688 L 79.007812 95.933594 C 77.953125 94.804688 76.425781 94.160156 74.792969 94.160156 C 71.179688 94.160156 68.09375 97.25 68.09375 101.265625 C 68.09375 105.058594 70.820312 108.457031 74.863281 108.457031 C 76.648438 108.457031 78.003906 108.042969 79.28125 106.589844 L 79.28125 108.371094 L 82.347656 108.371094 L 82.347656 94.804688 Z M 75.265625 105.582031 C 72.941406 105.582031 71.054688 103.695312 71.054688 101.371094 C 71.054688 99.046875 72.941406 97.160156 75.265625 97.160156 C 77.589844 97.160156 79.476562 99.046875 79.476562 101.371094 C 79.476562 103.695312 77.589844 105.582031 75.265625 105.582031 Z M 75.265625 105.582031 "/>
</g>
</svg>
