<?xml version="1.0" encoding="UTF-8"?>
<svg xmlns="http://www.w3.org/2000/svg" xmlns:xlink="http://www.w3.org/1999/xlink" width="150px" height="150px" viewBox="0 0 150 150" version="1.1">
<g id="surface1">
<rect x="0" y="0" width="150" height="150" style="fill:rgb(100%,100%,100%);fill-opacity:1;stroke:none;"/>
<path style=" stroke:none;fill-rule:evenodd;fill:rgb(0%,0%,0%);fill-opacity:1;" d="M 33.261719 55.621094 C 25.570312 64.652344 18.199219 75.851562 18.125 84.222656 C 18.097656 87.371094 19.101562 90.121094 21.511719 92.203125 C 24.984375 95.199219 28.808594 96.257812 32.613281 96.265625 C 38.175781 96.273438 43.695312 94.027344 48.019531 92.300781 C 55.300781 89.386719 135.792969 54.433594 135.792969 54.433594 C 136.566406 54.042969 136.421875 53.558594 135.449219 53.800781 C 135.058594 53.898438 47.824219 77.539062 47.824219 77.539062 C 46.171875 78.007812 44.464844 78.25 42.746094 78.265625 C 36.042969 78.304688 30.078125 74.585938 30.125 66.742188 C 30.144531 63.675781 31.082031 59.976562 33.261719 55.621094 Z M 33.261719 55.621094 "/>
</g>
</svg>
