<?xml version="1.0" encoding="UTF-8"?>
<svg xmlns="http://www.w3.org/2000/svg" xmlns:xlink="http://www.w3.org/1999/xlink" width="150px" height="150px" viewBox="0 0 150 150" version="1.1">
<g id="surface1">
<path style=" stroke:none;fill-rule:nonzero;fill:rgb(0%,0%,0%);fill-opacity:1;" d="M 80.527344 38.464844 C 80.039062 38.539062 79.570312 40.339844 78.625 41.277344 C 77.933594 41.953125 77.070312 41.910156 76.613281 42.746094 C 76.4375 43.058594 76.496094 43.59375 76.296875 44.105469 C 75.914062 45.128906 74.554688 45.222656 74.554688 46.339844 C 74.550781 47.542969 75.6875 47.773438 76.671875 48.628906 C 77.441406 49.316406 77.515625 49.792969 78.445312 50.125 C 79.242188 50.398438 80.421875 49.511719 81.488281 49.832031 C 82.359375 50.089844 83.199219 50.277344 83.394531 51.175781 C 83.570312 52.003906 83.382812 53.285156 82.324219 53.140625 C 81.964844 53.097656 80.417969 52.578125 78.515625 52.78125 C 76.21875 53.039062 73.597656 53.789062 73.34375 56.347656 C 73.203125 57.78125 74.96875 59.46875 76.679688 59.125 C 77.859375 58.890625 77.300781 57.5 77.945312 56.820312 C 78.789062 55.953125 83.570312 59.847656 88.011719 59.847656 C 89.882812 59.847656 91.273438 59.375 92.65625 57.929688 C 92.785156 57.816406 92.941406 57.582031 93.140625 57.566406 C 93.332031 57.582031 93.660156 57.765625 93.765625 57.847656 C 97.347656 60.722656 100.050781 66.492188 113.203125 66.558594 C 115.050781 66.570312 117.160156 67.453125 118.878906 69.023438 C 120.414062 70.441406 121.3125 72.648438 122.183594 74.886719 C 123.5 78.246094 125.859375 81.515625 129.4375 85.152344 C 129.632812 85.347656 132.574219 87.636719 132.8125 87.808594 C 132.847656 87.832031 133.066406 88.351562 132.988281 88.636719 C 132.902344 90.820312 132.585938 97.160156 137.3125 97.449219 C 138.46875 97.507812 138.164062 96.695312 138.164062 96.132812 C 138.164062 95.03125 137.960938 93.933594 138.542969 92.800781 C 139.339844 91.246094 136.855469 90.53125 136.929688 87.167969 C 136.980469 84.660156 134.875 85.085938 133.804688 83.175781 C 133.1875 82.070312 132.640625 81.484375 132.679688 80.128906 C 132.921875 72.511719 131.058594 67.507812 130.132812 66.277344 C 129.40625 65.347656 128.808594 64.980469 129.472656 64.550781 C 133.417969 61.945312 134.3125 59.519531 134.3125 59.519531 C 136.410156 54.585938 138.296875 50.082031 140.898438 48.097656 C 141.421875 47.691406 142.765625 46.6875 143.59375 46.292969 C 146.019531 45.148438 147.296875 44.453125 148.003906 43.765625 C 149.117188 42.679688 150 40.410156 148.929688 39.039062 C 147.601562 37.339844 145.300781 38.6875 144.285156 39.289062 C 137.03125 43.59375 135.960938 51.1875 133.449219 55.550781 C 131.445312 59.035156 128.1875 61.59375 125.273438 61.804688 C 123.085938 61.964844 120.730469 61.523438 118.386719 60.492188 C 112.683594 57.992188 109.5625 54.765625 108.828125 54.195312 C 107.296875 53.011719 95.402344 41.335938 85.761719 40.859375 C 85.761719 40.859375 84.566406 38.464844 84.265625 38.425781 C 83.5625 38.335938 82.839844 39.855469 82.324219 40.03125 C 81.835938 40.195312 81.019531 38.382812 80.527344 38.464844 M 38.101562 108.15625 C 37.195312 108.132812 36.425781 107.386719 36.425781 106.46875 L 36.429688 76.40625 L 26.519531 76.40625 L 26.519531 109.542969 C 26.519531 111.167969 27.835938 112.492188 29.449219 112.492188 L 46.765625 112.492188 C 48.394531 112.492188 49.691406 111.167969 49.691406 109.542969 L 49.691406 76.40625 L 39.796875 76.40625 L 39.785156 106.46875 C 39.785156 107.386719 39.015625 108.132812 38.101562 108.15625 M 71.273438 76.40625 L 56.28125 76.40625 C 54.503906 76.40625 53.058594 77.851562 53.058594 79.644531 L 53.058594 112.492188 L 62.976562 112.492188 L 62.976562 82.359375 C 62.984375 81.4375 63.730469 80.707031 64.652344 80.707031 C 65.578125 80.707031 66.320312 81.417969 66.339844 82.335938 L 66.339844 112.492188 L 76.21875 112.492188 L 76.21875 82.332031 C 76.230469 81.417969 76.972656 80.707031 77.894531 80.707031 C 78.8125 80.707031 79.570312 81.4375 79.578125 82.359375 L 79.578125 112.492188 L 89.492188 112.492188 L 89.492188 79.644531 C 89.492188 77.851562 88.046875 76.40625 86.269531 76.40625 Z M 13.261719 82.421875 C 13.269531 81.417969 12.453125 80.707031 11.585938 80.707031 L 9.902344 80.707031 L 9.902344 98.957031 L 11.585938 98.957031 C 12.460938 98.957031 13.269531 98.261719 13.261719 97.261719 Z M 19.910156 103.425781 L 9.902344 103.425781 L 9.902344 112.492188 L 0 112.492188 L 0 76.40625 L 19.972656 76.40625 C 21.761719 76.40625 23.15625 77.859375 23.15625 79.65625 L 23.15625 100.175781 C 23.15625 101.972656 21.707031 103.425781 19.910156 103.425781 M 123.476562 104.421875 C 121.484375 104.421875 119.8125 106.144531 119.8125 108.226562 C 119.8125 110.320312 121.484375 112.023438 123.539062 112.023438 C 125.574219 112.023438 127.226562 110.320312 127.226562 108.226562 C 127.226562 106.136719 125.574219 104.421875 123.539062 104.421875 Z M 127.933594 108.214844 C 127.933594 110.667969 125.96875 112.660156 123.539062 112.660156 C 121.078125 112.660156 119.105469 110.679688 119.105469 108.214844 C 119.105469 105.796875 121.078125 103.777344 123.464844 103.777344 C 125.96875 103.777344 127.933594 105.738281 127.933594 108.214844 "/>
<path style=" stroke:none;fill-rule:nonzero;fill:rgb(0%,0%,0%);fill-opacity:1;" d="M 123.078125 107.933594 C 123.769531 107.933594 124.128906 107.6875 124.128906 107.199219 C 124.128906 106.765625 123.78125 106.542969 123.109375 106.542969 L 122.914062 106.542969 L 122.914062 107.933594 Z M 125.617188 110.785156 L 124.433594 110.785156 L 122.914062 108.761719 L 122.914062 110.785156 L 121.945312 110.785156 L 121.945312 105.671875 L 122.960938 105.671875 C 124.339844 105.671875 125.074219 106.191406 125.074219 107.1875 C 125.074219 107.855469 124.640625 108.445312 124.039062 108.621094 L 123.96875 108.644531 Z M 106.117188 98.964844 L 106.117188 82.347656 C 106.09375 81.429688 105.355469 80.722656 104.429688 80.722656 C 103.515625 80.722656 102.761719 81.457031 102.753906 82.375 L 102.753906 98.964844 Z M 106.117188 112.492188 L 106.117188 103.433594 L 102.753906 103.433594 L 102.753906 112.492188 L 92.855469 112.492188 L 92.855469 79.644531 C 92.855469 77.851562 94.300781 76.40625 96.074219 76.40625 L 112.796875 76.40625 C 114.574219 76.40625 116.019531 77.851562 116.019531 79.644531 L 116.019531 112.492188 Z M 106.117188 112.492188 "/>
</g>
</svg>
