<?xml version="1.0" encoding="UTF-8"?>
<svg xmlns="http://www.w3.org/2000/svg" xmlns:xlink="http://www.w3.org/1999/xlink" width="150px" height="150px" viewBox="0 0 150 150" version="1.1">
<g id="surface1">
<rect x="0" y="0" width="150" height="150" style="fill:rgb(100%,100%,100%);fill-opacity:1;stroke:none;"/>
<path style=" stroke:none;fill-rule:evenodd;fill:rgb(0%,0%,0%);fill-opacity:1;" d="M 92.847656 50.484375 L 92.847656 47.515625 L 80.964844 47.515625 L 80.964844 63.820312 L 92.847656 63.820312 L 92.847656 61.132812 L 84.273438 61.132812 L 84.273438 56.707031 L 91.78125 56.707031 L 91.78125 53.792969 L 84.273438 53.792969 L 84.273438 50.484375 Z M 89.542969 65.503906 L 89.542969 71.777344 L 83.039062 71.777344 L 83.039062 65.503906 L 79.679688 65.503906 L 79.679688 81.753906 L 83.039062 81.753906 L 83.039062 74.46875 L 89.542969 74.46875 L 89.542969 81.753906 L 92.847656 81.753906 L 92.847656 65.503906 Z M 92.847656 86.347656 L 92.847656 83.433594 L 80.964844 83.433594 L 80.964844 99.960938 L 92.847656 99.960938 L 92.847656 96.992188 L 84.273438 96.992188 L 84.273438 92.621094 L 91.78125 92.621094 L 91.78125 89.933594 L 84.273438 89.933594 L 84.273438 86.347656 Z M 79.0625 47.515625 L 75.757812 47.515625 L 75.757812 53.792969 L 69.257812 53.792969 L 69.257812 47.515625 L 65.949219 47.515625 L 65.949219 63.820312 L 69.257812 63.820312 L 69.257812 56.539062 L 75.757812 56.539062 L 75.757812 63.820312 L 79.0625 63.820312 Z M 51.71875 47.515625 L 51.71875 50.484375 L 56.761719 50.484375 L 56.761719 63.820312 L 60.066406 63.820312 L 60.066406 50.484375 L 65.109375 50.484375 L 65.109375 47.515625 Z M 41.296875 65.054688 C 36.085938 65.054688 33.339844 68.023438 33.339844 73.628906 C 33.339844 79.511719 36.085938 82.425781 41.296875 82.425781 C 46.507812 82.425781 49.195312 79.511719 49.195312 73.628906 C 49.195312 68.023438 46.507812 65.054688 41.296875 65.054688 Z M 36.925781 73.628906 C 36.925781 69.871094 38.382812 68.023438 41.296875 68.023438 C 44.433594 68.023438 45.890625 69.871094 45.890625 73.628906 C 45.890625 77.605469 44.433594 79.511719 41.296875 79.511719 C 38.382812 79.511719 36.925781 77.605469 36.925781 73.628906 Z M 28.578125 65.503906 L 28.578125 76.988281 L 22.078125 65.503906 L 18.546875 65.503906 L 18.546875 81.753906 L 21.683594 81.753906 L 21.683594 70.320312 L 28.351562 81.753906 L 31.882812 81.753906 L 31.882812 65.503906 Z M 43.984375 90.15625 L 43.984375 86.347656 L 52.335938 86.347656 L 52.335938 83.433594 L 40.679688 83.433594 L 40.679688 99.960938 L 43.984375 99.960938 L 43.984375 93.070312 L 51.324219 93.070312 L 51.324219 90.15625 Z M 78.445312 68.417969 L 78.445312 65.503906 L 65.109375 65.503906 L 65.109375 68.417969 L 70.097656 68.417969 L 70.097656 81.753906 L 73.460938 81.753906 L 73.460938 68.417969 Z M 57.769531 75.53125 C 58.835938 75.53125 59.675781 75.699219 60.066406 76.148438 L 60.683594 81.753906 L 64.4375 81.753906 L 64.4375 81.359375 C 64.046875 81.136719 63.820312 80.128906 63.820312 78.222656 C 63.820312 75.925781 62.980469 74.691406 61.75 74.074219 C 63.429688 73.402344 64.269531 72.171875 64.269531 70.097656 C 64.269531 67.183594 62.589844 65.503906 59.058594 65.503906 L 50.878906 65.503906 L 50.878906 81.753906 L 54.238281 81.753906 L 54.238281 75.53125 Z M 54.238281 72.785156 L 54.238281 68.417969 L 58.386719 68.417969 C 60.066406 68.417969 60.90625 69.03125 60.90625 70.488281 C 60.90625 71.945312 60.066406 72.785156 58.21875 72.785156 Z M 60.066406 83.433594 L 56.089844 83.433594 L 50.261719 99.960938 L 53.792969 99.960938 L 55.082031 96.375 L 61.132812 96.375 L 62.140625 99.960938 L 65.726562 99.960938 Z M 57.992188 87.1875 L 60.066406 93.6875 L 55.921875 93.6875 Z M 76.375 88.867188 L 79.679688 88.867188 C 79.511719 87.410156 79.0625 86.179688 78.054688 85.113281 C 76.597656 83.878906 74.914062 83.039062 72.617188 83.039062 C 70.320312 83.039062 68.640625 83.878906 67.183594 85.339844 C 65.949219 86.792969 65.109375 88.867188 65.109375 91.613281 C 65.109375 97.441406 67.574219 100.351562 72.394531 100.351562 C 76.597656 100.351562 78.894531 98.28125 79.679688 94.300781 L 76.375 94.300781 C 75.925781 96.207031 74.46875 97.214844 72.617188 97.214844 C 69.871094 97.214844 68.640625 95.367188 68.640625 91.78125 C 68.640625 87.859375 69.871094 85.953125 72.617188 85.953125 C 74.46875 85.953125 75.53125 87.019531 76.375 88.867188 Z M 34.796875 99.738281 L 34.851562 99.738281 Z M 34.851562 99.738281 C 35.414062 99.738281 35.859375 99.511719 36.199219 99.234375 C 36.476562 98.898438 36.703125 98.449219 36.703125 97.835938 C 36.703125 97.160156 36.476562 96.710938 36.199219 96.433594 C 35.863281 96.152344 35.414062 95.984375 34.851562 95.984375 L 34.796875 95.984375 C 34.125 95.984375 33.675781 96.152344 33.394531 96.433594 C 33.117188 96.710938 32.949219 97.160156 32.949219 97.835938 L 32.949219 97.886719 C 32.949219 98.449219 33.117188 98.898438 33.394531 99.234375 C 33.675781 99.511719 34.125 99.738281 34.796875 99.738281 Z M 34.796875 100.1875 C 34.011719 100.1875 33.453125 99.90625 33.058594 99.511719 C 32.667969 99.121094 32.5 98.5625 32.5 97.886719 L 32.5 97.835938 C 32.5 97.046875 32.667969 96.488281 33.058594 96.097656 C 33.453125 95.703125 34.011719 95.535156 34.796875 95.535156 L 34.851562 95.535156 C 35.523438 95.535156 36.085938 95.703125 36.476562 96.097656 C 36.871094 96.488281 37.148438 97.050781 37.148438 97.835938 C 37.148438 98.5625 36.871094 99.121094 36.476562 99.511719 C 36.046875 99.945312 35.460938 100.191406 34.851562 100.1875 Z M 35.019531 97.609375 L 35.078125 97.609375 C 35.300781 97.609375 35.414062 97.496094 35.414062 97.21875 L 35.414062 97.160156 C 35.414062 97.160156 35.355469 97.160156 35.355469 97.105469 C 35.300781 97.050781 35.1875 97.050781 35.019531 97.050781 L 34.402344 97.050781 L 34.402344 97.609375 Z M 35.414062 98 L 35.859375 98.5625 C 35.917969 98.675781 35.859375 98.785156 35.804688 98.84375 C 35.691406 98.953125 35.523438 98.898438 35.46875 98.84375 L 34.910156 98.058594 L 34.402344 98.058594 L 34.402344 98.671875 C 34.402344 98.785156 34.292969 98.898438 34.179688 98.898438 C 34.066406 98.898438 33.957031 98.785156 33.957031 98.671875 L 33.957031 96.824219 C 33.957031 96.710938 34.066406 96.601562 34.179688 96.601562 L 35.078125 96.601562 C 35.300781 96.601562 35.523438 96.65625 35.636719 96.769531 C 35.691406 96.824219 35.75 96.824219 35.75 96.882812 C 35.859375 96.996094 35.859375 97.105469 35.859375 97.21875 C 35.859375 97.664062 35.75 97.886719 35.414062 98 Z M 95.144531 47.515625 C 105.566406 47.515625 114.585938 51.324219 121.871094 58.609375 C 129.378906 66.117188 133.136719 75.085938 133.136719 85.5625 L 133.136719 99.960938 L 117.894531 99.960938 L 117.894531 85.113281 C 117.894531 79.289062 115.820312 74.242188 111.617188 70.097656 C 110.609375 69.03125 109.546875 68.191406 108.3125 67.351562 C 104.949219 65.054688 100.972656 64.046875 96.824219 64.046875 L 95.144531 64.046875 Z M 116.433594 99.960938 L 104.554688 99.960938 L 104.554688 88.476562 C 104.554688 86.570312 103.941406 85.113281 102.652344 83.878906 C 101.417969 82.59375 99.738281 81.976562 98.058594 81.976562 L 95.144531 81.976562 L 95.144531 65.503906 L 96.824219 65.503906 C 101.195312 65.503906 104.949219 66.734375 108.3125 69.257812 C 109.152344 69.648438 109.992188 70.488281 110.609375 71.105469 C 114.585938 75.085938 116.433594 79.679688 116.433594 85.113281 Z M 103.101562 99.960938 L 95.144531 99.960938 L 95.144531 83.433594 L 98.058594 83.433594 C 99.347656 83.433594 100.578125 83.878906 101.644531 84.890625 C 102.484375 85.730469 103.101562 87.019531 103.101562 88.476562 Z M 103.101562 99.960938 "/>
</g>
</svg>
