<?xml version="1.0" encoding="UTF-8"?>
<svg xmlns="http://www.w3.org/2000/svg" xmlns:xlink="http://www.w3.org/1999/xlink" width="150px" height="150px" viewBox="0 0 150 150" version="1.1">
<g id="surface1">
<path style=" stroke:none;fill-rule:nonzero;fill:rgb(11.372549%,11.372549%,10.588235%);fill-opacity:1;" d="M 2.046875 148.804688 C 0.273438 146.976562 0.046875 145.625 0 136.472656 L 0 127.480469 L 3.183594 127.480469 L 3.183594 134.722656 C 3.183594 142.679688 3.636719 144.988281 5.136719 144.988281 C 6.957031 144.988281 7.273438 143.554688 7.273438 135.277344 L 7.273438 127.480469 L 10.910156 127.480469 L 10.910156 135.359375 C 10.910156 144.589844 10.546875 146.816406 8.683594 148.566406 C 7.09375 150 3.363281 150.078125 2.046875 148.804688 Z M 13.183594 138.621094 L 13.183594 127.480469 L 15.230469 127.480469 C 17.226562 127.480469 17.273438 127.558594 19.183594 132.890625 L 21.136719 138.222656 L 21.273438 132.890625 L 21.410156 127.480469 L 24.546875 127.480469 L 24.546875 149.761719 L 22.863281 149.761719 C 21.183594 149.683594 21.046875 149.523438 18.863281 143.15625 L 16.59375 136.632812 L 16.457031 143.234375 L 16.320312 149.761719 L 13.183594 149.761719 Z M 27.273438 138.699219 L 27.273438 127.480469 L 30.136719 127.558594 C 35.957031 127.640625 38.636719 131.0625 38.636719 138.382812 C 38.636719 145.863281 36.546875 148.886719 30.820312 149.523438 L 27.273438 150 Z M 34.183594 142.839844 C 35.273438 141.085938 35.273438 136.152344 34.183594 134.402344 C 33.726562 133.6875 32.683594 132.8125 31.910156 132.574219 L 30.457031 132.09375 L 30.457031 145.226562 L 31.910156 144.667969 C 32.683594 144.429688 33.726562 143.554688 34.183594 142.839844 Z M 40.457031 138.621094 L 40.457031 127.480469 L 49.546875 127.480469 L 49.546875 132.253906 L 46.820312 132.253906 C 44.410156 132.253906 44.089844 132.414062 44.089844 133.847656 C 44.089844 135.277344 44.410156 135.4375 46.589844 135.4375 C 49.046875 135.4375 49.089844 135.4375 49.089844 137.824219 C 49.089844 140.210938 49.046875 140.210938 46.589844 140.210938 C 44.226562 140.210938 44.089844 140.292969 44.089844 142.203125 C 44.089844 144.113281 44.226562 144.191406 46.820312 144.191406 L 49.546875 144.191406 L 49.546875 149.761719 L 40.457031 149.761719 Z M 51.820312 138.542969 L 51.820312 127.320312 L 55.953125 127.640625 C 59.863281 127.957031 60.183594 128.117188 61.226562 130.265625 C 62.546875 132.890625 62.410156 136.390625 60.910156 138.9375 C 60.046875 140.449219 60.089844 140.53125 61.863281 144.429688 C 62.820312 146.578125 63.636719 148.726562 63.636719 149.046875 C 63.636719 149.441406 62.726562 149.761719 61.636719 149.761719 C 59.726562 149.761719 59.5 149.523438 57.953125 145.78125 C 57.046875 143.632812 56.089844 141.804688 55.863281 141.804688 C 55.636719 141.804688 55.453125 143.632812 55.453125 145.78125 L 55.453125 149.761719 L 51.820312 149.761719 Z M 58.226562 135.757812 C 58.726562 134.640625 58.683594 134.324219 57.953125 133.367188 C 56.453125 131.457031 55.453125 131.9375 55.453125 134.640625 C 55.453125 136.632812 55.636719 137.027344 56.546875 137.027344 C 57.136719 137.027344 57.910156 136.472656 58.226562 135.757812 Z M 68.863281 148.410156 C 69.046875 147.613281 70.089844 142.597656 71.226562 137.269531 L 73.316406 127.480469 L 77.183594 127.480469 L 79.226562 137.269531 C 80.363281 142.597656 81.410156 147.613281 81.589844 148.410156 C 81.863281 149.523438 81.636719 149.761719 80.046875 149.761719 C 78.316406 149.761719 78.089844 149.523438 77.683594 147.375 C 77.226562 145.226562 77 144.988281 75.226562 144.988281 C 73.453125 144.988281 73.226562 145.226562 72.773438 147.375 C 72.363281 149.523438 72.136719 149.761719 70.410156 149.761719 C 68.816406 149.761719 68.589844 149.523438 68.863281 148.410156 Z M 75.863281 139.257812 C 75.863281 138.699219 75.683594 137.507812 75.5 136.710938 C 75.183594 135.277344 75.089844 135.4375 74.636719 137.664062 C 74.183594 139.972656 74.226562 140.210938 75.046875 140.210938 C 75.5 140.210938 75.910156 139.734375 75.863281 139.257812 Z M 82.726562 138.621094 L 82.726562 127.480469 L 85.816406 127.480469 C 89.546875 127.480469 92.089844 128.671875 92.726562 130.664062 C 93.453125 133.050781 93.273438 136.550781 92.273438 138.460938 C 91.773438 139.417969 91.363281 140.371094 91.363281 140.609375 C 91.363281 140.929688 92.089844 142.679688 92.953125 144.507812 C 93.816406 146.417969 94.546875 148.328125 94.546875 148.886719 C 94.546875 149.363281 93.726562 149.761719 92.546875 149.761719 C 90.679688 149.761719 90.5 149.523438 89.046875 145.78125 C 87.046875 140.691406 86.363281 140.691406 86.363281 145.78125 L 86.363281 149.761719 L 82.726562 149.761719 Z M 89.089844 135.835938 C 89.863281 134.242188 88.953125 132.253906 87.453125 132.253906 C 86.546875 132.253906 86.363281 132.652344 86.363281 134.640625 C 86.363281 136.632812 86.546875 137.027344 87.453125 137.027344 C 88.046875 137.027344 88.773438 136.472656 89.089844 135.835938 Z M 95.453125 138.621094 L 95.453125 127.480469 L 99.589844 127.480469 L 100.816406 132.335938 L 102.042969 137.1875 L 103.410156 132.335938 C 104.726562 127.480469 104.726562 127.480469 106.679688 127.480469 L 108.636719 127.480469 L 108.636719 149.761719 L 105 149.761719 L 104.953125 144.03125 L 104.910156 138.222656 L 104.226562 141.246094 C 103.589844 143.792969 103.316406 144.191406 102.042969 144.191406 C 100.773438 144.191406 100.5 143.792969 99.863281 141.246094 L 99.179688 138.222656 L 99.136719 144.03125 L 99.089844 149.761719 L 95.453125 149.761719 Z M 113.863281 149.046875 C 113.363281 148.648438 112.453125 147.375 111.816406 146.179688 C 110.816406 144.351562 110.679688 143.316406 110.679688 138.542969 C 110.679688 133.449219 110.773438 132.890625 112.136719 130.503906 C 113.363281 128.355469 114 127.957031 116.226562 127.71875 C 119.316406 127.402344 120.679688 128.355469 122.136719 132.175781 C 123.863281 136.632812 123.316406 144.03125 120.953125 147.691406 C 119.863281 149.441406 115.453125 150.238281 113.863281 149.046875 Z M 118.363281 143.714844 C 120.40625 140.210938 119.363281 132.253906 116.863281 132.253906 C 115.136719 132.253906 114.316406 134.324219 114.316406 138.621094 C 114.316406 141.804688 114.542969 142.996094 115.179688 143.871094 C 116.363281 145.304688 117.5 145.304688 118.363281 143.714844 Z M 126.453125 147.773438 L 125 145.625 L 125 127.480469 L 128.179688 127.480469 L 128.179688 133.367188 C 128.179688 141.722656 128.542969 144.113281 129.816406 144.667969 C 131.863281 145.542969 132.273438 143.953125 132.273438 135.359375 L 132.273438 127.480469 L 135.90625 127.480469 L 135.90625 136.152344 C 135.90625 144.191406 135.816406 145.066406 134.816406 147.054688 C 133.90625 148.964844 133.316406 149.285156 130.816406 149.601562 C 128.179688 149.921875 127.773438 149.761719 126.453125 147.773438 Z M 138.179688 138.621094 L 138.179688 127.480469 L 141.269531 127.480469 C 145 127.480469 147.542969 128.671875 148.179688 130.664062 C 148.90625 132.972656 148.726562 135.835938 147.726562 138.0625 C 147.226562 139.175781 146.816406 140.292969 146.816406 140.609375 C 146.816406 140.929688 147.542969 142.679688 148.40625 144.507812 C 149.269531 146.417969 150 148.328125 150 148.886719 C 150 149.363281 149.226562 149.761719 148.042969 149.761719 C 146.226562 149.761719 146 149.441406 144.40625 145.78125 C 143.453125 143.632812 142.5 141.804688 142.269531 141.804688 C 142 141.804688 141.816406 143.632812 141.816406 145.78125 L 141.816406 149.761719 L 138.179688 149.761719 Z M 144.542969 135.835938 C 145.316406 134.242188 144.40625 132.253906 142.90625 132.253906 C 142 132.253906 141.816406 132.652344 141.816406 134.640625 C 141.816406 136.632812 142 137.027344 142.90625 137.027344 C 143.5 137.027344 144.226562 136.472656 144.542969 135.835938 Z M 37.726562 115.941406 C 32.046875 113.632812 24.273438 109.417969 17.820312 105.039062 C 12.457031 101.457031 12.683594 102.335938 15.273438 92.707031 C 17.226562 85.542969 21.457031 75.675781 24.410156 71.300781 C 27.046875 67.402344 31.59375 62.070312 33.589844 60.636719 C 35.363281 59.363281 35.363281 58.726562 33.546875 57.375 C 30.863281 55.464844 25.5 48.78125 22.726562 43.925781 C 19.726562 38.671875 16.457031 30.398438 14.820312 23.792969 C 12.820312 15.914062 12.683594 16.550781 16.910156 13.6875 C 25.957031 7.480469 36.136719 2.308594 42.589844 0.558594 C 44.183594 0.160156 44.5 0.238281 44.683594 1.511719 C 44.820312 2.308594 45.046875 12.09375 45.226562 23.234375 L 45.546875 43.527344 L 47 47.109375 C 48.726562 51.246094 48.863281 51.328125 55.453125 49.257812 C 68.089844 45.277344 80.316406 45.4375 93.089844 49.574219 C 95.910156 50.53125 98.316406 51.167969 98.363281 51.007812 C 98.453125 50.847656 99.273438 49.097656 100.179688 47.269531 L 101.816406 43.765625 L 101.816406 0 L 104.226562 0.558594 C 111.273438 2.226562 123.179688 9.230469 128 14.640625 C 129.542969 16.390625 129.90625 17.269531 130.179688 20.054688 C 130.542969 24.113281 130.179688 28.089844 128.953125 32.785156 C 127.679688 37.71875 120.589844 49.734375 116 54.667969 C 113.953125 56.898438 112.316406 58.804688 112.316406 59.046875 C 112.316406 59.285156 114.089844 61.433594 116.273438 63.820312 C 121.042969 69.152344 127.636719 80.292969 128.953125 85.304688 C 130.136719 89.761719 130.589844 95.09375 130.089844 98.832031 C 129.816406 101.0625 129.273438 102.09375 127.273438 104.242188 C 122.226562 109.496094 111.273438 115.78125 104 117.613281 L 101.816406 118.089844 L 101.816406 74.085938 L 99.863281 70.503906 L 97.953125 66.921875 L 92.953125 68.515625 C 79.816406 72.8125 67.5 72.8125 54.363281 68.515625 C 51.636719 67.640625 49.183594 67.082031 48.863281 67.320312 C 48.546875 67.480469 47.636719 69.230469 46.910156 71.140625 L 45.546875 74.640625 L 45.226562 94.855469 C 45.046875 105.996094 44.820312 115.78125 44.726562 116.578125 C 44.410156 118.328125 43.589844 118.25 37.726562 115.941406 Z M 83.410156 65.011719 C 86.636719 63.421875 91.363281 59.839844 91.363281 59.046875 C 91.363281 57.851562 84.816406 53.632812 80.953125 52.28125 C 76.183594 50.53125 66.589844 51.007812 62.726562 53.078125 C 59.546875 54.746094 55 58.328125 55 59.046875 C 55 60.316406 62.363281 65.171875 66.363281 66.523438 C 68.910156 67.320312 80.726562 66.367188 83.410156 65.011719 Z M 83.410156 65.011719 "/>
</g>
</svg>
