<?xml version="1.0" encoding="UTF-8"?>
<svg xmlns="http://www.w3.org/2000/svg" xmlns:xlink="http://www.w3.org/1999/xlink" width="150px" height="150px" viewBox="0 0 150 150" version="1.1">
<g id="surface1">
<path style=" stroke:none;fill-rule:nonzero;fill:rgb(13.72549%,12.156863%,12.54902%);fill-opacity:1;" d="M 57.910156 109.1875 L 67.835938 21.222656 L 66.277344 21.222656 L 66.277344 1.710938 C 66.277344 1.710938 63.601562 1.511719 60.847656 31.644531 L 57.90625 63.78125 L 54.96875 31.644531 C 52.222656 1.53125 49.546875 1.710938 49.546875 1.710938 L 49.546875 21.222656 L 47.988281 21.222656 Z M 73.75 21.242188 L 85.652344 21.242188 L 85.652344 11.476562 L 83.511719 3.460938 L 72.855469 3.460938 L 70.710938 11.476562 L 70.710938 21.242188 L 69.160156 21.242188 L 69.160156 89.679688 L 73.910156 107.4375 L 80.902344 107.4375 L 85.652344 89.679688 L 73.75 89.679688 L 73.75 56.542969 L 80.902344 56.542969 L 85.652344 38.78125 L 73.75 38.78125 Z M 124.699219 21.242188 L 123.140625 21.242188 L 123.140625 13.085938 L 119.882812 1.730469 L 119.890625 86.394531 C 119.890625 86.394531 118.5 91.167969 116.285156 91.167969 C 114.070312 91.167969 112.683594 86.394531 112.683594 86.394531 L 112.6875 1.730469 L 109.429688 13.085938 L 109.429688 21.242188 L 107.875 21.242188 L 107.875 92.304688 C 107.875 92.304688 110.816406 108.3125 116.285156 108.3125 C 121.753906 108.3125 124.699219 92.304688 124.699219 92.304688 Z M 103.554688 21.242188 L 103.554688 1.710938 L 100.519531 13.066406 L 100.527344 33.75 L 92.761719 1.710938 L 89.726562 13.085938 L 89.726562 21.242188 L 88.171875 21.242188 L 88.171875 99.421875 L 92.757812 150 L 92.757812 30.527344 L 92.761719 30.589844 L 100.527344 62.609375 L 100.527344 150 L 105.105469 99.421875 L 105.105469 21.242188 Z M 145.289062 21.242188 L 143.738281 21.242188 L 143.738281 1.710938 L 139.363281 11.613281 L 136.378906 38.78125 L 133.390625 11.613281 L 129.015625 1.710938 L 129.015625 21.242188 L 127.464844 21.242188 L 127.464844 92.023438 L 132.046875 109.1875 L 132.050781 43.953125 L 136.378906 68.179688 L 140.703125 43.953125 L 140.707031 109.1875 L 145.289062 92.023438 Z M 37.183594 20.148438 C 37.183594 20.148438 38.121094 24.878906 38.1875 31.582031 C 38.1875 31.582031 34.515625 34.207031 31.757812 36.136719 C 31.757812 36.136719 32.988281 34.746094 34.722656 25.238281 C 36.457031 15.730469 37.234375 13.921875 38.558594 15.234375 C 39.886719 16.546875 41.269531 23.148438 41.269531 23.148438 C 41.269531 23.148438 40.195312 9.746094 38.546875 4.871094 C 36.898438 0 35.792969 1.53125 33.769531 4.433594 C 31.753906 7.359375 30.765625 8.113281 29.660156 6.980469 C 28.558594 5.847656 27.21875 3.839844 24.449219 3.839844 C 21.683594 3.839844 20.339844 5.847656 19.242188 6.980469 C 18.140625 8.113281 17.152344 7.339844 15.132812 4.433594 C 13.109375 1.511719 12.003906 0 10.351562 4.871094 C 8.699219 9.746094 7.632812 23.148438 7.632812 23.148438 C 7.632812 23.148438 9.015625 16.546875 10.34375 15.234375 C 11.671875 13.921875 12.445312 15.730469 14.179688 25.238281 C 15.910156 34.746094 17.144531 36.136719 17.144531 36.136719 C 14.386719 34.207031 10.710938 31.582031 10.710938 31.582031 C 10.777344 24.902344 11.714844 20.148438 11.714844 20.148438 C 4.710938 29.992188 5.894531 59.585938 5.894531 59.585938 C 14.320312 125.4375 18.449219 145.027344 18.449219 145.027344 C 18.449219 145.027344 15.46875 114.101562 12.886719 86.355469 C 10.300781 58.613281 9.667969 53.578125 10.242188 51.570312 C 10.8125 49.5625 12.652344 50.875 13.554688 57.914062 C 14.453125 64.957031 17.660156 90.054688 17.660156 90.054688 C 17.660156 90.054688 17.8125 76.390625 17.914062 66.667969 C 18.015625 56.921875 19.394531 56.066406 20.761719 57.539062 C 22.132812 59.007812 23.238281 60.460938 24.449219 60.460938 C 25.660156 60.460938 26.769531 59.007812 28.140625 57.539062 C 29.511719 56.066406 30.886719 56.921875 30.988281 66.667969 C 31.089844 76.390625 31.242188 90.054688 31.242188 90.054688 C 31.242188 90.054688 34.449219 64.957031 35.347656 57.914062 C 36.246094 50.875 38.085938 49.5625 38.660156 51.570312 C 39.234375 53.578125 38.597656 58.613281 36.015625 86.375 C 33.429688 114.121094 30.449219 145.046875 30.449219 145.046875 C 30.449219 145.046875 34.582031 125.457031 43.007812 59.605469 C 43.007812 59.605469 44.183594 30.011719 37.183594 20.148438 Z M 22.089844 48.269531 C 21.707031 46.121094 21.277344 46.023438 20.394531 46.578125 C 19.632812 47.234375 19.726562 43.019531 20.421875 42.640625 C 21.253906 41.984375 22.160156 43.019531 22.089844 48.269531 Z M 28.496094 46.578125 C 27.613281 46.023438 27.183594 46.101562 26.800781 48.269531 C 26.730469 43.019531 27.636719 41.984375 28.472656 42.640625 C 29.164062 43.019531 29.257812 47.234375 28.496094 46.578125 Z M 28.496094 46.578125 "/>
</g>
</svg>
